<?xml version="1.0" encoding="UTF-8" standalone="no"?>
<svg id="svg3008" xmlns:rdf="http://www.w3.org/1999/02/22-rdf-syntax-ns#" xmlns="http://www.w3.org/2000/svg" height="800" width="800" version="1.1" xmlns:cc="http://creativecommons.org/ns#" xmlns:dc="http://purl.org/dc/elements/1.1/">
 <metadata id="metadata3027">
  <rdf:RDF>
   <cc:Work rdf:about="">
    <dc:format>image/svg+xml</dc:format>
    <dc:type rdf:resource="http://purl.org/dc/dcmitype/StillImage"/>
    <dc:title>blih</dc:title>
   </cc:Work>
  </rdf:RDF>
 </metadata>
<!-- Created with SVG-edit - http://svg-edit.googlecode.com/ -->
 <title id="title3010">blih</title>
 <g id="g3012">
  <title id="title3014">Layer 1</title>
  <rect id="svg_1" rx="100" ry="100" height="800" width="800" y="0" x="0" stroke-width="0" fill="#f0db4f"/>
  <path id="rect3017" d="M250,100c-27.7,0-50,22.3-50,50v500c0,27.7,22.3,50,50,50h300c0.87,0,1.74-0.02,2.59-0.06,26.5-1.34,47.41-23.11,47.41-49.94v-300c0-27.7-22.3-50-50-50h-225v100h175v200h-200v-450c0-27.7-22.3-50-50-50z" fill="#323330"/>
  <path id="path3814" transform="matrix(0.88721801,0,0,0.88721801,30.075175,3.7593973)" fill="#FFF" d="m642.37,164.83a56.356,56.356,0,1,1,-112.71,0,56.356,56.356,0,1,1,112.71,0z"/>
 </g>
</svg>
